<?xml version="1.0" encoding="utf-8"?>
<!-- Generator: Adobe Illustrator 15.1.0, SVG Export Plug-In . SVG Version: 6.00 Build 0)  -->
<!DOCTYPE svg PUBLIC "-//W3C//DTD SVG 1.1//EN" "http://www.w3.org/Graphics/SVG/1.1/DTD/svg11.dtd">
<svg version="1.1" id="图层_1" xmlns="http://www.w3.org/2000/svg" xmlns:xlink="http://www.w3.org/1999/xlink" x="0px" y="0px"
	 width="100px" height="100px" viewBox="0 0 100 100" enable-background="new 0 0 100 100" xml:space="preserve">
<g id="sound">
	<rect y="3.021" fill="#4D4D4D" width="4" height="6.958"/>
	<polygon fill="#4D4D4D" points="4,3.021 9,0 9,13 4,9.979 	"/>
	<rect y="16.021" width="4" height="6.958"/>
	<polygon points="4,16.021 9,13 9,26 4,22.979 	"/>
	<rect x="10" y="16" width="1" height="7"/>
	<rect x="12" y="14" width="1" height="11"/>
</g>
<g id="button">
	<rect x="18.5" y="5" fill="#4D4D4D" width="5" height="9"/>
	<rect x="27.5" y="10" fill="#4D4D4D" width="5" height="9"/>
	<polyline fill="#4D4D4D" points="27.5,10 25,10 30,5 35,10 	"/>
	<polyline fill="#4D4D4D" points="23.5,14 26,14 21,19 16,14 	"/>
	<text transform="matrix(1 0 0 1 43.416 17.334)" fill="#4D4D4D" font-family="'DIN-Black'" font-size="16">$</text>
	<rect x="16.5" y="28.5" fill="#4D4D4D" width="17" height="13"/>
	<rect x="18.5" y="30.5" fill="#FFFFFF" width="13" height="9"/>
	<polyline fill="#FFFFFF" stroke="#4D4D4D" stroke-miterlimit="10" points="31.5,30.5 25,35 18.5,30.5 	"/>
	<g id="line" display="none">
	</g>
</g>
</svg>
