<?xml version="1.0" encoding="UTF-8" standalone="no"?>
<!-- Created with Inkscape (http://www.inkscape.org/) -->

<svg
   xmlns:dc="http://purl.org/dc/elements/1.1/"
   xmlns:cc="http://creativecommons.org/ns#"
   xmlns:rdf="http://www.w3.org/1999/02/22-rdf-syntax-ns#"
   xmlns:svg="http://www.w3.org/2000/svg"
   xmlns="http://www.w3.org/2000/svg"
   xmlns:sodipodi="http://sodipodi.sourceforge.net/DTD/sodipodi-0.dtd"
   xmlns:inkscape="http://www.inkscape.org/namespaces/inkscape"
   width="140"
   height="120"
   id="svg2"
   version="1.1"
   inkscape:version="0.48.1 r9760"
   sodipodi:docname="icon.svg">
  <defs
     id="defs4" />
  <sodipodi:namedview
     id="base"
     pagecolor="#ffffff"
     bordercolor="#666666"
     borderopacity="1.0"
     inkscape:pageopacity="0.0"
     inkscape:pageshadow="2"
     inkscape:zoom="2.8284271"
     inkscape:cx="62.685987"
     inkscape:cy="57.884164"
     inkscape:document-units="px"
     inkscape:current-layer="layer1"
     showgrid="true"
     inkscape:window-width="1024"
     inkscape:window-height="721"
     inkscape:window-x="0"
     inkscape:window-y="0"
     inkscape:window-maximized="1"
     showguides="true"
     inkscape:guide-bbox="true">
    <inkscape:grid
       type="xygrid"
       id="grid3008"
       empspacing="5"
       visible="true"
       enabled="true"
       snapvisiblegridlinesonly="true" />
    <sodipodi:guide
       orientation="0,1"
       position="110,18"
       id="guide3011" />
    <sodipodi:guide
       orientation="1,0"
       position="110,40"
       id="guide3016" />
    <sodipodi:guide
       orientation="0,1"
       position="110,60"
       id="guide3018" />
    <sodipodi:guide
       orientation="1,0"
       position="94,15"
       id="guide3787" />
    <sodipodi:guide
       orientation="1,0"
       position="126,104"
       id="guide3861" />
    <sodipodi:guide
       orientation="0,1"
       position="110,104"
       id="guide3863" />
    <sodipodi:guide
       orientation="0,1"
       position="110,88"
       id="guide5362" />
    <sodipodi:guide
       orientation="0,1"
       position="110,72"
       id="guide3048" />
    <sodipodi:guide
       orientation="0,1"
       position="110,15"
       id="guide3032" />
    <sodipodi:guide
       orientation="1,0"
       position="124,15"
       id="guide3034" />
  </sodipodi:namedview>
  <metadata
     id="metadata7">
    <rdf:RDF>
      <cc:Work
         rdf:about="">
        <dc:format>image/svg+xml</dc:format>
        <dc:type
           rdf:resource="http://purl.org/dc/dcmitype/StillImage" />
        <dc:title />
      </cc:Work>
    </rdf:RDF>
  </metadata>
  <g
     inkscape:label="Layer 1"
     inkscape:groupmode="layer"
     id="layer1"
     transform="translate(0,-932.3622)">
    <path
       style="fill:#d7d7d7;fill-opacity:1;stroke:none"
       d="m 5.5,932.3622 c -4.1550142,0 -5.5,1.345 -5.5,5.5 l 0,19 c 0,4.155 1.3449858,5.5 5.5,5.5 l 19,0 c 4.155015,0 5.5,-1.345 5.5,-5.5 l 0,-19 c 0,-4.155 -1.344985,-5.5 -5.5,-5.5 z m 6.5,6 6,0 0,6 6,0 0,6 -6,0 0,6 -6,0 0,-6 -6,0 0,-6 6,0 z"
       id="rect3015"
       inkscape:connector-curvature="0"
       sodipodi:nodetypes="sssssssssccccccccccccc" />
    <rect
       style="fill:#3a3a3a;fill-opacity:1;stroke:none"
       id="rect2985"
       width="4"
       height="8"
       x="60"
       y="950.36218"
       ry="0" />
    <path
       style="fill:#3a3a3a;fill-opacity:1;stroke:none"
       d="m 64,950.3622 6,-4 0,16 -6,-4 z"
       id="path2991"
       inkscape:connector-curvature="0"
       sodipodi:nodetypes="ccccc" />
    <rect
       style="fill:#000000;fill-opacity:1;stroke:none"
       id="rect2985-6"
       width="4"
       height="8"
       x="76"
       y="950.36218"
       ry="0" />
    <path
       style="fill:#000000;fill-opacity:1;stroke:none"
       d="m 80,950.3622 6,-4 0,16 -6,-4 z"
       id="path2991-0"
       inkscape:connector-curvature="0"
       sodipodi:nodetypes="ccccc" />
    <path
       style="fill:none;stroke:#000000;stroke-width:2;stroke-linecap:butt;stroke-linejoin:miter;stroke-miterlimit:4;stroke-opacity:1;stroke-dasharray:none"
       d="m 88,951.3622 0,6"
       id="path3825"
       inkscape:connector-curvature="0" />
    <path
       style="fill:none;stroke:#000000;stroke-width:2;stroke-linecap:butt;stroke-linejoin:miter;stroke-miterlimit:4;stroke-opacity:1;stroke-dasharray:none"
       d="m 90.9,949.3622 0,10"
       id="path3825-6"
       inkscape:connector-curvature="0"
       sodipodi:nodetypes="cc" />
    <path
       style="fill:#c1cde2;fill-opacity:1;stroke:none"
       d="m 35.5,932.3622 c -4.155014,0 -5.5,1.345 -5.5,5.5 l 0,19 c 0,4.155 1.344986,5.5 5.5,5.5 l 19,0 c 4.155015,0 5.5,-1.345 5.5,-5.5 l 0,-19 c 0,-4.155 -1.344985,-5.5 -5.5,-5.5 z m 6.5,6 6,0 0,6 6,0 0,6 -6,0 0,6 -6,0 0,-6 -6,0 0,-6 6,0 z"
       id="rect3015-8"
       inkscape:connector-curvature="0"
       sodipodi:nodetypes="sssssssssccccccccccccc" />
    <path
       style="fill:#d7d7d7;fill-opacity:1;stroke:none"
       d="m 5.5,962.3622 c -4.155014,0 -5.5,1.345 -5.5,5.5 l 0,19 c 0,4.155 1.344986,5.5 5.5,5.5 l 19,0 c 4.155015,0 5.5,-1.345 5.5,-5.5 l 0,-19 c 0,-4.155 -1.344985,-5.5 -5.5,-5.5 l -19,0 z m 0.5,12 18,0 0,6 -18,0 0,-6 z"
       id="rect3015-5"
       inkscape:connector-curvature="0" />
    <path
       inkscape:connector-curvature="0"
       style="fill:#c1cde2;fill-opacity:1;stroke:none"
       d="m 35.5,962.3622 c -4.155014,0 -5.5,1.345 -5.5,5.5 l 0,19 c 0,4.155 1.344986,5.5 5.5,5.5 l 19,0 c 4.155015,0 5.5,-1.345 5.5,-5.5 l 0,-19 c 0,-4.155 -1.344985,-5.5 -5.5,-5.5 l -19,0 z m 0.5,12 18,0 0,6 -18,0 0,-6 z"
       id="rect3015-5-9" />
    <path
       style="fill:#d7d7d7;fill-opacity:1;stroke:none"
       d="m 5.5,992.3622 c -4.155014,0 -5.5,1.345 -5.5,5.5 l 0,19 c 0,4.155 1.344986,5.5 5.5,5.5 l 19,0 c 4.155015,0 5.5,-1.345 5.5,-5.5 l 0,-19 c 0,-4.155 -1.344985,-5.5 -5.5,-5.5 z"
       id="rect3015-5-8"
       inkscape:connector-curvature="0"
       sodipodi:nodetypes="sssssssss" />
    <path
       sodipodi:type="star"
       style="fill:#ffffff;fill-opacity:1;stroke:none"
       id="path3054"
       sodipodi:sides="5"
       sodipodi:cx="10"
       sodipodi:cy="70"
       sodipodi:r1="2.2740893"
       sodipodi:r2="5.5325499"
       sodipodi:arg1="0.40996758"
       sodipodi:arg2="1.0382862"
       inkscape:flatsided="false"
       inkscape:rounded="0"
       inkscape:randomized="0"
       d="M 12.085644,70.906406 12.808862,74.766488 9.7824565,72.26366 6.334787,74.144312 7.7799067,70.492613 4.925912,67.794838 l 3.9195384,0.245954 1.6838036,-3.547969 0.977288,3.803706 3.894643,0.50501 z"
       transform="matrix(2.0552402,-0.19417912,0.19417912,2.0552402,-19.150616,866.72232)"
       inkscape:transform-center-x="-1.3533705"
       inkscape:transform-center-y="-3.3390855" />
    <path
       style="fill:#c1cde2;fill-opacity:1;stroke:none"
       d="m 35.5,992.3622 c -4.155014,0 -5.5,1.345 -5.5,5.5 l 0,19 c 0,4.155 1.344986,5.5 5.5,5.5 l 19,0 c 4.155015,0 5.5,-1.345 5.5,-5.5 l 0,-19 c 0,-4.155 -1.344985,-5.5 -5.5,-5.5 z"
       id="rect3015-5-8-8"
       inkscape:connector-curvature="0"
       sodipodi:nodetypes="sssssssss" />
    <path
       sodipodi:type="star"
       style="fill:#ffffff;fill-opacity:1;stroke:none"
       id="path3054-2"
       sodipodi:sides="5"
       sodipodi:cx="10"
       sodipodi:cy="70"
       sodipodi:r1="2.2740893"
       sodipodi:r2="5.5325499"
       sodipodi:arg1="0.40996758"
       sodipodi:arg2="1.0382862"
       inkscape:flatsided="false"
       inkscape:rounded="0"
       inkscape:randomized="0"
       d="M 12.085644,70.906406 12.808862,74.766488 9.7824565,72.26366 6.334787,74.144312 7.7799067,70.492613 4.925912,67.794838 l 3.9195384,0.245954 1.6838036,-3.547969 0.977288,3.803706 3.894643,0.50501 z"
       transform="matrix(2.0552402,-0.19417912,0.19417912,2.0552402,10.849384,866.72232)"
       inkscape:transform-center-x="-1.3533705"
       inkscape:transform-center-y="-3.3390855" />
    <path
       style="fill:#d7d7d7;fill-opacity:1;stroke:none"
       d="m 5.5,1022.3622 c -4.155014,0 -5.5,1.345 -5.5,5.5 l 0,19 c 0,4.155 1.344986,5.5 5.5,5.5 l 19,0 c 4.155015,0 5.5,-1.345 5.5,-5.5 l 0,-19 c 0,-4.155 -1.344985,-5.5 -5.5,-5.5 z"
       id="rect3015-5-8-9"
       inkscape:connector-curvature="0"
       sodipodi:nodetypes="sssssssss" />
    <path
       style="fill:#ffffff;stroke:none"
       d="m 4.262,1038.0622 4.375,-4.375 4.375,4.375 8.75,-8.75 4.375,4.375 -13.125,13.125 z"
       id="path3865"
       inkscape:connector-curvature="0" />
    <path
       style="fill:#c1cde2;fill-opacity:1;stroke:none"
       d="m 35.5,1022.3622 c -4.155014,0 -5.5,1.345 -5.5,5.5 l 0,19 c 0,4.155 1.344986,5.5 5.5,5.5 l 19,0 c 4.155015,0 5.5,-1.345 5.5,-5.5 l 0,-19 c 0,-4.155 -1.344985,-5.5 -5.5,-5.5 z"
       id="rect3015-5-8-9-9"
       inkscape:connector-curvature="0"
       sodipodi:nodetypes="sssssssss" />
    <path
       style="fill:#ffffff;stroke:none"
       d="m 34.262,1038.0622 4.375,-4.375 4.375,4.375 8.75,-8.75 4.375,4.375 -13.125,13.125 z"
       id="path3865-9"
       inkscape:connector-curvature="0" />
    <path
       style="fill:#3d65bb;fill-opacity:1;stroke:none"
       d="m 65.5,1022.3622 c -4.155014,0 -5.5,1.345 -5.5,5.5 l 0,19 c 0,4.155 1.344986,5.5 5.5,5.5 l 19,0 c 4.155015,0 5.5,-1.345 5.5,-5.5 l 0,-19 c 0,-4.155 -1.344985,-5.5 -5.5,-5.5 z"
       id="rect3015-5-8-9-9-6"
       inkscape:connector-curvature="0"
       sodipodi:nodetypes="sssssssss" />
    <path
       style="fill:#ffffff;stroke:none"
       d="m 64.262,1038.0622 4.375,-4.375 4.375,4.375 8.75,-8.75 4.375,4.375 -13.125,13.125 z"
       id="path3865-9-5"
       inkscape:connector-curvature="0" />
    <path
       style="fill:#3d65bb;fill-opacity:1;stroke:none"
       d="m 65.5,992.3622 c -4.155014,0 -5.5,1.345 -5.5,5.5 l 0,19 c 0,4.155 1.344986,5.5 5.5,5.5 l 19,0 c 4.155015,0 5.5,-1.345 5.5,-5.5 l 0,-19 c 0,-4.155 -1.344985,-5.5 -5.5,-5.5 z"
       id="rect3015-5-8-9-9-6-6"
       inkscape:connector-curvature="0"
       sodipodi:nodetypes="sssssssss" />
    <path
       sodipodi:type="star"
       style="fill:#ffffff;fill-opacity:1;stroke:none"
       id="path3054-2-2"
       sodipodi:sides="5"
       sodipodi:cx="10"
       sodipodi:cy="70"
       sodipodi:r1="2.2740893"
       sodipodi:r2="5.5325499"
       sodipodi:arg1="0.40996758"
       sodipodi:arg2="1.0382862"
       inkscape:flatsided="false"
       inkscape:rounded="0"
       inkscape:randomized="0"
       d="M 12.085644,70.906406 12.808862,74.766488 9.7824565,72.26366 6.334787,74.144312 7.7799067,70.492613 4.925912,67.794838 l 3.9195384,0.245954 1.6838036,-3.547969 0.977288,3.803706 3.894643,0.50501 z"
       transform="matrix(2.0552402,-0.19417912,0.19417912,2.0552402,40.849726,866.72232)"
       inkscape:transform-center-x="-1.3533705"
       inkscape:transform-center-y="-3.3390855" />
    <rect
       style="fill:#888888;fill-opacity:1;stroke:none"
       id="rect2985-63"
       width="4"
       height="8"
       x="60"
       y="966.36218"
       ry="0" />
    <path
       style="fill:#888888;fill-opacity:1;stroke:none"
       d="m 64,966.36222 6,-4 0,16 -6,-4 z"
       id="path2991-2"
       inkscape:connector-curvature="0"
       sodipodi:nodetypes="ccccc" />
    <rect
       style="color:#000000;fill:#bcd0ed;fill-opacity:0;fill-rule:nonzero;stroke-width:10;stroke-linecap:butt;stroke-linejoin:miter;stroke-miterlimit:4;stroke-opacity:1;stroke-dasharray:none;stroke-dashoffset:0;marker:none;visibility:visible;display:inline;overflow:visible;enable-background:accumulate"
       id="rect3009"
       width="20"
       height="20"
       x="90"
       y="60"
       transform="translate(0,932.3622)" />
    <rect
       style="color:#000000;fill:#ffffff;fill-opacity:0.19607843;fill-rule:nonzero;stroke-width:10;stroke-linecap:butt;stroke-linejoin:miter;stroke-miterlimit:4;stroke-opacity:1;stroke-dasharray:none;stroke-dashoffset:0;marker:none;visibility:visible;display:inline;overflow:visible;enable-background:accumulate"
       id="rect3009-0"
       width="20"
       height="20"
       x="90"
       y="1014.3622" />
    <path
       style="color:#000000;fill:#ffffff;fill-opacity:1;fill-rule:nonzero;stroke:none;stroke-width:1px;marker:none;visibility:visible;display:inline;overflow:visible;enable-background:accumulate"
       d="m 95,73 2,2 3,-3 3,3 2,-2 -3,-3 3,-3 -2,-2 -3,3 -3,-3 -2,2 3,3 z"
       id="path3782"
       inkscape:connector-curvature="0"
       transform="translate(0,932.3622)" />
    <path
       style="color:#000000;fill:#ffffff;fill-opacity:1;fill-rule:nonzero;stroke:none;stroke-width:1px;marker:none;visibility:visible;display:inline;overflow:visible;enable-background:accumulate"
       d="m 95,1027.3622 2,2 3,-3 3,3 2,-2 -3,-3 3,-3 -2,-2 -3,3 -3,-3 -2,2 3,3 z"
       id="path3782-8"
       inkscape:connector-curvature="0" />
    <rect
       style="color:#000000;fill:#ffffff;fill-opacity:0.78431374;fill-rule:nonzero;stroke:none;stroke-width:2;marker:none;visibility:visible;display:inline;overflow:visible;enable-background:accumulate"
       id="rect3017-5"
       width="16"
       height="16"
       x="110"
       y="932.36218" />
    <rect
       style="color:#000000;fill:#ffffff;fill-opacity:0.78431374;fill-rule:nonzero;stroke:none;stroke-width:2;marker:none;visibility:visible;display:inline;overflow:visible;enable-background:accumulate"
       id="rect3017-5-7"
       width="16"
       height="16"
       x="110"
       y="948.36218" />
    <path
       style="fill:#509bdd;fill-opacity:1;stroke:none"
       d="m 97,959.3622 6,-6 -2,-2 6,0 0,6 -2,-2 -6,6 -2,0 z"
       id="path5364"
       inkscape:connector-curvature="0"
       sodipodi:nodetypes="ccccccccc" />
    <path
       style="fill:#509bdd;fill-opacity:1;stroke:none"
       d="m 113,937.3622 0,-2 2,0 3,3 3,-3 2,0 0,2 -3,3 3,3 0,2 -2,0 -3,-3 -3,3 -2,0 0,-2 3,-3"
       id="path5420"
       inkscape:connector-curvature="0"
       sodipodi:nodetypes="cccccccccccccccc" />
    <path
       style="fill:#509bdd;fill-opacity:1;stroke:none"
       d="m 97,937.3622 0,-2 2,0 3,3 3,-3 2,0 0,2 -3,3 3,3 0,2 -2,0 -3,-3 -3,3 -2,0 0,-2 3,-3"
       id="path5420-3"
       inkscape:connector-curvature="0"
       sodipodi:nodetypes="cccccccccccccccc" />
    <path
       style="fill:#509bdd;fill-opacity:1;stroke:none"
       d="m 113,959.3622 6,-6 -2,-2 6,0 0,6 -2,-2 -6,6 -2,0 z"
       id="path5364-9"
       inkscape:connector-curvature="0"
       sodipodi:nodetypes="ccccccccc" />
    <rect
       style="color:#000000;fill:#ffffff;fill-opacity:0.78431373;fill-rule:nonzero;stroke:none;stroke-width:2;marker:none;visibility:visible;display:inline;overflow:visible;enable-background:accumulate"
       id="rect3017-5-7-8"
       width="16"
       height="16"
       x="110"
       y="964.36218" />
    <path
       style="fill:#509bdd;fill-opacity:1;stroke:none"
       d="m 104,35 -3,3 -4,0 0,4 4,0 3,3 0,-10"
       id="path3050"
       inkscape:connector-curvature="0"
       transform="translate(0,932.3622)"
       sodipodi:nodetypes="ccccccc" />
    <path
       style="fill:#509bdd;fill-opacity:1;stroke:none"
       d="m 120,967.3622 -3,3 -4,0 0,4 4,0 3,3 0,-10"
       id="path3050-8"
       inkscape:connector-curvature="0"
       sodipodi:nodetypes="ccccccc" />
    <path
       style="fill:#509bdd;stroke:none;stroke-width:1px;stroke-linecap:butt;stroke-linejoin:miter;stroke-opacity:1;fill-opacity:1"
       d="m 121,38 0,4 1,0 0,-4 z"
       id="path3838"
       inkscape:connector-curvature="0"
       transform="translate(0,932.3622)" />
    <path
       style="fill:#509bdd;fill-opacity:1;stroke:none"
       d="m 123,969.3622 0,6 1,0 0,-6 z"
       id="path3838-8"
       inkscape:connector-curvature="0"
       sodipodi:nodetypes="ccccc" />
    <path
       style="fill:#7bb3e0;stroke:none;stroke-width:1px;stroke-linecap:butt;stroke-linejoin:miter;stroke-opacity:1;fill-opacity:1"
       d="m 94,120 15,-15 15,15 -30,0"
       id="path3036"
       inkscape:connector-curvature="0"
       transform="translate(0,932.3622)" />
    <path
       style="fill:#ffffff;stroke:none;stroke-width:1px;stroke-linecap:butt;stroke-linejoin:miter;stroke-opacity:1;fill-opacity:1"
       d="m 95,120 14,-14 14,14 z"
       id="path3806"
       inkscape:connector-curvature="0"
       transform="translate(0,932.3622)" />
  </g>
</svg>
